<svg width="31" height="30" viewBox="0 0 31 30" fill="none" xmlns="http://www.w3.org/2000/svg">
<path d="M5.79266 24.7464C4.73067 24.7464 3.87143 25.7446 3.87143 26.9647C3.87143 28.1848 4.73067 29.183 5.79266 29.183C6.85465 29.183 7.72355 28.1848 7.72355 26.9647C7.72355 25.7446 6.85465 24.7464 5.79266 24.7464ZM15.4471 24.7464C14.3851 24.7464 13.5259 25.7446 13.5259 26.9647C13.5259 28.1848 14.3851 29.183 15.4471 29.183C16.5091 29.183 17.378 28.1848 17.378 26.9647C17.378 25.7446 16.5091 24.7464 15.4471 24.7464ZM14.0472 19.2006C14.7713 19.2006 15.4085 18.7459 15.7367 18.0582L19.193 10.8598C19.5502 10.1278 19.0868 9.2183 18.3531 9.2183H4.06452L3.157 7H0L0 9.2183H1.93089L5.40648 17.6367L4.10313 20.3431C3.39836 21.8293 4.32519 23.6372 5.79266 23.6372H17.378V21.4189H5.79266L6.85465 19.2006H14.0472ZM4.98169 11.4366H16.7118L14.0472 16.9823H7.26979L4.98169 11.4366Z" fill="black" fill-opacity="0.63"/>
<ellipse cx="23.501" cy="7.24611" rx="7.5" ry="7.24611" fill="#F4A340"/>
</svg>
